<svg width="33" height="33" viewBox="0 0 33 33" fill="none" xmlns="http://www.w3.org/2000/svg">
<path d="M32.5 5.22763C32.5 2.46621 30.2614 0.227631 27.5 0.227631H5.5C2.73858 0.227631 0.5 2.46621 0.5 5.22763V27.2276C0.5 29.9891 2.73858 32.2276 5.5 32.2276H27.5C30.2614 32.2276 32.5 29.9891 32.5 27.2276V5.22763Z" fill="white"/>
<path fill-rule="evenodd" clip-rule="evenodd" d="M24.3304 16.4095C24.3304 15.8422 24.2795 15.2967 24.185 14.7731H16.6504V17.8677H20.9559C20.7704 18.8677 20.2068 19.7149 19.3595 20.2822V22.2895H21.9449C23.4577 20.8968 24.3304 18.8458 24.3304 16.4095Z" fill="#4285F4"/>
<path fill-rule="evenodd" clip-rule="evenodd" d="M16.6491 24.2276C18.8091 24.2276 20.62 23.5112 21.9437 22.2894L19.3582 20.2821C18.6418 20.7621 17.7255 21.0458 16.6491 21.0458C14.5655 21.0458 12.8018 19.6385 12.1727 17.7476H9.5V19.8203C10.8164 22.4349 13.5218 24.2276 16.6491 24.2276Z" fill="#34A853"/>
<path fill-rule="evenodd" clip-rule="evenodd" d="M12.174 17.7476C12.014 17.2676 11.9231 16.7549 11.9231 16.2276C11.9231 15.7003 12.014 15.1876 12.174 14.7076V12.6349H9.5013C8.95948 13.7149 8.65039 14.9367 8.65039 16.2276C8.65039 17.5185 8.95948 18.7403 9.5013 19.8203L12.174 17.7476Z" fill="#FBBC05"/>
<path fill-rule="evenodd" clip-rule="evenodd" d="M16.6491 11.4095C17.8237 11.4095 18.8782 11.8131 19.7073 12.6058L22.0018 10.3113C20.6164 9.02036 18.8055 8.22763 16.6491 8.22763C13.5218 8.22763 10.8164 10.0204 9.5 12.6349L12.1727 14.7076C12.8018 12.8167 14.5655 11.4095 16.6491 11.4095Z" fill="#EA4335"/>
</svg>
